<svg width="1200" height="520" viewBox="0 0 1200 520" fill="none" xmlns="http://www.w3.org/2000/svg">
  <defs>
    <linearGradient id="bg" x1="40" y1="20" x2="1160" y2="500" gradientUnits="userSpaceOnUse">
      <stop stop-color="#071B18"/>
      <stop offset="0.55" stop-color="#0D3A31"/>
      <stop offset="1" stop-color="#126E5A"/>
    </linearGradient>
    <linearGradient id="glow" x1="0" y1="0" x2="1" y2="1">
      <stop stop-color="#6EE7B7" stop-opacity="0.28"/>
      <stop offset="1" stop-color="#34D399" stop-opacity="0"/>
    </linearGradient>
    <filter id="shadow" x="-20%" y="-20%" width="140%" height="140%">
      <feDropShadow dx="0" dy="18" stdDeviation="18" flood-color="#001A14" flood-opacity="0.42"/>
    </filter>
  </defs>

  <rect width="1200" height="520" rx="32" fill="url(#bg)"/>
  <circle cx="1100" cy="24" r="260" fill="url(#glow)"/>
  <circle cx="60" cy="540" r="260" fill="url(#glow)"/>
  <path d="M0 420C210 350 350 500 580 430C810 360 950 250 1200 330V520H0V420Z" fill="#34D399" fill-opacity="0.06"/>

  <g transform="translate(70 62)">
    <rect width="64" height="24" rx="12" fill="#6EE7B7" fill-opacity="0.14"/>
    <circle cx="16" cy="12" r="4" fill="#6EE7B7"/>
    <text x="28" y="16" fill="#A7F3D0" font-family="Arial, sans-serif" font-size="11" font-weight="700" letter-spacing="1.2">WORK</text>

    <text x="0" y="86" fill="white" font-family="Arial, sans-serif" font-size="42" font-weight="700">Goreeva</text>
    <text x="0" y="122" fill="#A7F3D0" font-family="Arial, sans-serif" font-size="20">Education technology ecosystem</text>

    <text x="0" y="174" fill="#D1FAE5" font-family="Arial, sans-serif" font-size="15">
      <tspan x="0" dy="0">Engineering across the complete school experience,</tspan>
      <tspan x="0" dy="24">from mobile apps to administration workflows.</tspan>
    </text>

    <g transform="translate(0 244)">
      <rect width="135" height="42" rx="12" fill="white" fill-opacity="0.08" stroke="white" stroke-opacity="0.12"/>
      <text x="18" y="18" fill="#A7F3D0" font-family="Arial, sans-serif" font-size="10" font-weight="700" letter-spacing="1">SURFACES</text>
      <text x="18" y="34" fill="white" font-family="Arial, sans-serif" font-size="14" font-weight="700">Mobile + Web</text>

      <rect x="149" width="135" height="42" rx="12" fill="white" fill-opacity="0.08" stroke="white" stroke-opacity="0.12"/>
      <text x="167" y="18" fill="#A7F3D0" font-family="Arial, sans-serif" font-size="10" font-weight="700" letter-spacing="1">AUDIENCE</text>
      <text x="167" y="34" fill="white" font-family="Arial, sans-serif" font-size="14" font-weight="700">4 user roles</text>

      <rect x="298" width="135" height="42" rx="12" fill="white" fill-opacity="0.08" stroke="white" stroke-opacity="0.12"/>
      <text x="316" y="18" fill="#A7F3D0" font-family="Arial, sans-serif" font-size="10" font-weight="700" letter-spacing="1">SCOPE</text>
      <text x="316" y="34" fill="white" font-family="Arial, sans-serif" font-size="14" font-weight="700">Full stack</text>
    </g>

    <g transform="translate(0 318)">
      <rect width="106" height="30" rx="15" fill="#6EE7B7" fill-opacity="0.14"/>
      <text x="17" y="20" fill="#D1FAE5" font-family="Arial, sans-serif" font-size="12">React Native</text>
      <rect x="116" width="67" height="30" rx="15" fill="#6EE7B7" fill-opacity="0.14"/>
      <text x="135" y="20" fill="#D1FAE5" font-family="Arial, sans-serif" font-size="12">Expo</text>
      <rect x="193" width="70" height="30" rx="15" fill="#6EE7B7" fill-opacity="0.14"/>
      <text x="210" y="20" fill="#D1FAE5" font-family="Arial, sans-serif" font-size="12">React</text>
      <rect x="273" width="94" height="30" rx="15" fill="#6EE7B7" fill-opacity="0.14"/>
      <text x="291" y="20" fill="#D1FAE5" font-family="Arial, sans-serif" font-size="12">TypeScript</text>
      <rect x="377" width="76" height="30" rx="15" fill="#6EE7B7" fill-opacity="0.14"/>
      <text x="394" y="20" fill="#D1FAE5" font-family="Arial, sans-serif" font-size="12">Django</text>
    </g>
  </g>

  <g transform="translate(620 48)" filter="url(#shadow)">
    <rect width="500" height="424" rx="24" fill="#F7FFFC"/>
    <rect width="500" height="62" rx="24" fill="#ECFDF5"/>
    <rect y="38" width="500" height="24" fill="#ECFDF5"/>
    <circle cx="30" cy="31" r="6" fill="#34D399"/>
    <text x="49" y="36" fill="#064E3B" font-family="Arial, sans-serif" font-size="15" font-weight="700">School workspace</text>
    <rect x="394" y="18" width="80" height="26" rx="13" fill="#D1FAE5"/>
    <text x="412" y="35" fill="#047857" font-family="Arial, sans-serif" font-size="11" font-weight="700">LIVE DATA</text>

    <g transform="translate(24 86)">
      <rect width="140" height="92" rx="16" fill="#064E3B"/>
      <text x="16" y="25" fill="#A7F3D0" font-family="Arial, sans-serif" font-size="11" font-weight="700">ATTENDANCE</text>
      <text x="16" y="58" fill="white" font-family="Arial, sans-serif" font-size="28" font-weight="700">94.8%</text>
      <path d="M17 74C40 67 52 78 74 68C96 58 113 67 124 55" stroke="#6EE7B7" stroke-width="3" stroke-linecap="round"/>

      <rect x="154" width="140" height="92" rx="16" fill="#ECFDF5"/>
      <text x="170" y="25" fill="#047857" font-family="Arial, sans-serif" font-size="11" font-weight="700">ASSIGNMENTS</text>
      <text x="170" y="58" fill="#064E3B" font-family="Arial, sans-serif" font-size="28" font-weight="700">128</text>
      <rect x="170" y="72" width="95" height="7" rx="3.5" fill="#D1FAE5"/>
      <rect x="170" y="72" width="68" height="7" rx="3.5" fill="#34D399"/>

      <rect x="308" width="140" height="92" rx="16" fill="#ECFDF5"/>
      <text x="324" y="25" fill="#047857" font-family="Arial, sans-serif" font-size="11" font-weight="700">MESSAGES</text>
      <text x="324" y="58" fill="#064E3B" font-family="Arial, sans-serif" font-size="28" font-weight="700">24</text>
      <circle cx="333" cy="75" r="5" fill="#34D399"/>
      <text x="345" y="79" fill="#059669" font-family="Arial, sans-serif" font-size="10">8 unread</text>
    </g>

    <g transform="translate(24 198)">
      <text x="0" y="16" fill="#064E3B" font-family="Arial, sans-serif" font-size="13" font-weight="700">Connected product surfaces</text>

      <rect y="34" width="214" height="70" rx="14" fill="white" stroke="#D1FAE5"/>
      <circle cx="27" cy="69" r="15" fill="#D1FAE5"/>
      <path d="M20 69H34M27 62V76" stroke="#059669" stroke-width="2" stroke-linecap="round"/>
      <text x="53" y="64" fill="#064E3B" font-family="Arial, sans-serif" font-size="13" font-weight="700">Student + Parent</text>
      <text x="53" y="82" fill="#6B7280" font-family="Arial, sans-serif" font-size="11">Learning, fees, calendar</text>

      <rect x="234" y="34" width="214" height="70" rx="14" fill="white" stroke="#D1FAE5"/>
      <circle cx="261" cy="69" r="15" fill="#D1FAE5"/>
      <path d="M253 72L261 64L269 72" stroke="#059669" stroke-width="2" stroke-linecap="round" stroke-linejoin="round"/>
      <text x="287" y="64" fill="#064E3B" font-family="Arial, sans-serif" font-size="13" font-weight="700">Teacher + Admin</text>
      <text x="287" y="82" fill="#6B7280" font-family="Arial, sans-serif" font-size="11">Classes, reports, operations</text>

      <rect y="120" width="448" height="70" rx="14" fill="#064E3B"/>
      <text x="18" y="147" fill="#A7F3D0" font-family="Arial, sans-serif" font-size="10" font-weight="700" letter-spacing="1">ENGINEERING FOCUS</text>
      <text x="18" y="170" fill="white" font-family="Arial, sans-serif" font-size="13">Role-based workflows  /  Offline caching  /  Notifications  /  Payments</text>
    </g>
  </g>
</svg>
