<svg width="1200" height="520" viewBox="0 0 1200 520" fill="none" xmlns="http://www.w3.org/2000/svg">
  <defs>
    <linearGradient id="bg2" x1="40" y1="30" x2="1160" y2="500" gradientUnits="userSpaceOnUse">
      <stop stop-color="#111827"/>
      <stop offset="0.48" stop-color="#312E81"/>
      <stop offset="1" stop-color="#6D28D9"/>
    </linearGradient>
    <radialGradient id="orb" cx="0" cy="0" r="1" gradientTransform="translate(1080 70) rotate(140) scale(360)">
      <stop stop-color="#C4B5FD" stop-opacity="0.32"/>
      <stop offset="1" stop-color="#8B5CF6" stop-opacity="0"/>
    </radialGradient>
    <filter id="shadow2" x="-30%" y="-30%" width="160%" height="160%">
      <feDropShadow dx="0" dy="20" stdDeviation="20" flood-color="#09041D" flood-opacity="0.5"/>
    </filter>
  </defs>

  <rect width="1200" height="520" rx="32" fill="url(#bg2)"/>
  <rect width="1200" height="520" rx="32" fill="url(#orb)"/>
  <path d="M0 88C200 168 302 23 500 89C708 158 842 244 1200 132" stroke="#A78BFA" stroke-opacity="0.12" stroke-width="2"/>
  <path d="M0 116C210 194 330 52 516 116C720 186 852 272 1200 160" stroke="#A78BFA" stroke-opacity="0.08" stroke-width="2"/>

  <g transform="translate(68 58)">
    <rect width="88" height="24" rx="12" fill="#C4B5FD" fill-opacity="0.16"/>
    <circle cx="16" cy="12" r="4" fill="#C4B5FD"/>
    <text x="28" y="16" fill="#DDD6FE" font-family="Arial, sans-serif" font-size="11" font-weight="700" letter-spacing="1.2">0 TO 1</text>

    <text x="0" y="84" fill="white" font-family="Arial, sans-serif" font-size="38" font-weight="700">Real-time mobile platform</text>
    <text x="0" y="120" fill="#C4B5FD" font-family="Arial, sans-serif" font-size="20">Built from scratch to production</text>

    <text x="0" y="170" fill="#EDE9FE" font-family="Arial, sans-serif" font-size="15">
      <tspan x="0" dy="0">End-to-end ownership of architecture, product flows,</tspan>
      <tspan x="0" dy="24">reliability, native integrations, and releases.</tspan>
    </text>

    <g transform="translate(0 238)">
      <rect width="132" height="42" rx="12" fill="white" fill-opacity="0.08" stroke="white" stroke-opacity="0.12"/>
      <text x="17" y="18" fill="#C4B5FD" font-family="Arial, sans-serif" font-size="10" font-weight="700" letter-spacing="1">OWNERSHIP</text>
      <text x="17" y="34" fill="white" font-family="Arial, sans-serif" font-size="14" font-weight="700">Architecture</text>

      <rect x="146" width="132" height="42" rx="12" fill="white" fill-opacity="0.08" stroke="white" stroke-opacity="0.12"/>
      <text x="163" y="18" fill="#C4B5FD" font-family="Arial, sans-serif" font-size="10" font-weight="700" letter-spacing="1">REALTIME</text>
      <text x="163" y="34" fill="white" font-family="Arial, sans-serif" font-size="14" font-weight="700">Live state</text>

      <rect x="292" width="132" height="42" rx="12" fill="white" fill-opacity="0.08" stroke="white" stroke-opacity="0.12"/>
      <text x="309" y="18" fill="#C4B5FD" font-family="Arial, sans-serif" font-size="10" font-weight="700" letter-spacing="1">DELIVERY</text>
      <text x="309" y="34" fill="white" font-family="Arial, sans-serif" font-size="14" font-weight="700">iOS + Android</text>
    </g>

    <g transform="translate(0 310)">
      <rect width="64" height="30" rx="15" fill="#A78BFA" fill-opacity="0.16"/>
      <text x="18" y="20" fill="#EDE9FE" font-family="Arial, sans-serif" font-size="12">Expo</text>
      <rect x="74" width="106" height="30" rx="15" fill="#A78BFA" fill-opacity="0.16"/>
      <text x="91" y="20" fill="#EDE9FE" font-family="Arial, sans-serif" font-size="12">React Native</text>
      <rect x="190" width="94" height="30" rx="15" fill="#A78BFA" fill-opacity="0.16"/>
      <text x="208" y="20" fill="#EDE9FE" font-family="Arial, sans-serif" font-size="12">TypeScript</text>
      <rect x="294" width="61" height="30" rx="15" fill="#A78BFA" fill-opacity="0.16"/>
      <text x="311" y="20" fill="#EDE9FE" font-family="Arial, sans-serif" font-size="12">Ably</text>
      <rect x="365" width="76" height="30" rx="15" fill="#A78BFA" fill-opacity="0.16"/>
      <text x="382" y="20" fill="#EDE9FE" font-family="Arial, sans-serif" font-size="12">Zustand</text>
    </g>
  </g>

  <g transform="translate(637 42)" filter="url(#shadow2)">
    <rect x="92" width="260" height="436" rx="38" fill="#090E1A" stroke="#C4B5FD" stroke-opacity="0.25" stroke-width="2"/>
    <rect x="105" y="14" width="234" height="408" rx="28" fill="#15112B"/>
    <rect x="177" y="24" width="90" height="18" rx="9" fill="#090E1A"/>

    <text x="126" y="78" fill="#C4B5FD" font-family="Arial, sans-serif" font-size="11" font-weight="700" letter-spacing="1">LIVE DRAFT</text>
    <text x="126" y="104" fill="white" font-family="Arial, sans-serif" font-size="20" font-weight="700">Round 4  /  Pick 3</text>
    <circle cx="316" cy="91" r="8" fill="#22C55E"/>
    <circle cx="316" cy="91" r="13" stroke="#22C55E" stroke-opacity="0.22" stroke-width="5"/>

    <rect x="126" y="126" width="192" height="46" rx="12" fill="#7C3AED"/>
    <text x="140" y="145" fill="#DDD6FE" font-family="Arial, sans-serif" font-size="10" font-weight="700">ON THE CLOCK</text>
    <text x="140" y="161" fill="white" font-family="Arial, sans-serif" font-size="13" font-weight="700">00:24 remaining</text>
    <circle cx="296" cy="149" r="13" fill="#A78BFA" fill-opacity="0.35"/>
    <path d="M296 141V149L301 153" stroke="white" stroke-width="2" stroke-linecap="round"/>

    <g transform="translate(126 190)">
      <rect width="192" height="54" rx="12" fill="white" fill-opacity="0.06"/>
      <circle cx="26" cy="27" r="14" fill="#312E81"/>
      <text x="21" y="32" fill="#C4B5FD" font-family="Arial, sans-serif" font-size="14" font-weight="700">1</text>
      <text x="50" y="23" fill="white" font-family="Arial, sans-serif" font-size="12" font-weight="700">Player selected</text>
      <text x="50" y="40" fill="#9CA3AF" font-family="Arial, sans-serif" font-size="10">Realtime event synced</text>

      <rect y="66" width="192" height="54" rx="12" fill="white" fill-opacity="0.06"/>
      <circle cx="26" cy="93" r="14" fill="#312E81"/>
      <text x="21" y="98" fill="#C4B5FD" font-family="Arial, sans-serif" font-size="14" font-weight="700">2</text>
      <text x="50" y="89" fill="white" font-family="Arial, sans-serif" font-size="12" font-weight="700">Lineup updated</text>
      <text x="50" y="106" fill="#9CA3AF" font-family="Arial, sans-serif" font-size="10">Cache and store reconciled</text>

      <rect y="132" width="192" height="54" rx="12" fill="white" fill-opacity="0.06"/>
      <circle cx="26" cy="159" r="14" fill="#312E81"/>
      <text x="21" y="164" fill="#C4B5FD" font-family="Arial, sans-serif" font-size="14" font-weight="700">3</text>
      <text x="50" y="155" fill="white" font-family="Arial, sans-serif" font-size="12" font-weight="700">Next turn started</text>
      <text x="50" y="172" fill="#9CA3AF" font-family="Arial, sans-serif" font-size="10">UI responds without refresh</text>
    </g>

    <rect x="166" y="398" width="112" height="4" rx="2" fill="#6B7280"/>

    <g transform="translate(0 78)">
      <rect width="104" height="86" rx="16" fill="#17112D" stroke="#8B5CF6" stroke-opacity="0.35"/>
      <circle cx="24" cy="24" r="11" fill="#7C3AED"/>
      <path d="M19 24H29M24 19V29" stroke="white" stroke-width="1.5" stroke-linecap="round"/>
      <text x="16" y="53" fill="white" font-family="Arial, sans-serif" font-size="11" font-weight="700">Payments</text>
      <text x="16" y="69" fill="#A78BFA" font-family="Arial, sans-serif" font-size="9">Secure flows</text>

      <rect y="102" width="104" height="86" rx="16" fill="#17112D" stroke="#8B5CF6" stroke-opacity="0.35"/>
      <circle cx="24" cy="126" r="11" fill="#7C3AED"/>
      <path d="M18 126L22 130L30 121" stroke="white" stroke-width="1.5" stroke-linecap="round" stroke-linejoin="round"/>
      <text x="16" y="155" fill="white" font-family="Arial, sans-serif" font-size="11" font-weight="700">Identity</text>
      <text x="16" y="171" fill="#A78BFA" font-family="Arial, sans-serif" font-size="9">Verification</text>
    </g>

    <g transform="translate(368 176)">
      <rect width="112" height="86" rx="16" fill="#17112D" stroke="#8B5CF6" stroke-opacity="0.35"/>
      <circle cx="24" cy="24" r="11" fill="#7C3AED"/>
      <path d="M24 17C19 17 17 21 17 25C17 30 24 34 24 34C24 34 31 30 31 25C31 21 29 17 24 17Z" stroke="white" stroke-width="1.5"/>
      <text x="16" y="53" fill="white" font-family="Arial, sans-serif" font-size="11" font-weight="700">Location</text>
      <text x="16" y="69" fill="#A78BFA" font-family="Arial, sans-serif" font-size="9">Access rules</text>

      <rect y="102" width="112" height="86" rx="16" fill="#17112D" stroke="#8B5CF6" stroke-opacity="0.35"/>
      <circle cx="24" cy="126" r="11" fill="#7C3AED"/>
      <path d="M18 129H30M20 125H28M22 121H26" stroke="white" stroke-width="1.5" stroke-linecap="round"/>
      <text x="16" y="155" fill="white" font-family="Arial, sans-serif" font-size="11" font-weight="700">Monitoring</text>
      <text x="16" y="171" fill="#A78BFA" font-family="Arial, sans-serif" font-size="9">Release health</text>
    </g>
  </g>
</svg>
